<?xml version="1.0" encoding="utf-8"?>
<svg version="1.1" xmlns="http://www.w3.org/2000/svg" width="700" height="700">
  <path d="M 158.1 301.138 C 158.1 419.208 256.602 514.922 378.109 514.922 C 471.652 514.922 551.556 458.199 583.385 378.217 C 558.175 389.721 530.029 396.152 500.338 396.152 C 392.328 396.152 304.773 311.072 304.773 206.121 C 304.773 162.227 320.087 121.81 345.808 89.638 C 239.612 104.82 158.1 193.728 158.1 301.138 Z" stroke-linecap="round" stroke-linejoin="round" style="fill: rgb(102, 141, 255); stroke: rgb(102, 141, 255); stroke-width: 30px;"/>
  <path d="M 484.943 448.138 C 518.204 449.081 683.246 454.859 683.205 463.302 C 683.011 504.064 684.069 569.795 681.247 610.459 C 680.012 628.26 679.563 645.329 677.306 663.006 C 676.801 666.954 674.742 672.296 670.679 673.701 C 661.904 676.738 630.601 673.116 620.826 672.692 C 587.827 671.259 555.342 668.954 522.387 666.627 C 513.423 665.994 504.472 665.69 495.512 665.006 C 490.145 664.596 485.255 664.568 479.92 663.86 C 476.352 663.386 467.363 661.445 466.829 657.886 C 457.951 598.729 467.304 533.268 471.29 473.744 C 472.679 453.015 475.535 447.871 484.943 448.138 Z" fill="#26355E" style=""/>
  <path d="M 209.542 456.875 C 213.978 453.736 405.079 442.632 413.321 446.754 C 413.321 447.426 425.58 644.365 423.479 648.568 C 420.82 649.598 222.079 662.611 219.419 660.652 C 212.2 651.027 205.714 461.294 209.542 456.875 Z" fill="#26355E" style=""/>
  <path d="M 571.543 500.471 C 572.659 500.473 573.776 500.475 574.926 500.477 C 585.944 500.69 594.424 504.396 604.318 509.344 C 604.318 510.016 605.115 509.461 605.115 510.154 C 605.831 510.262 603.065 510.335 603.804 510.446 C 611.754 512.331 622.117 521.382 626.519 527.927 C 635.371 542.976 636.973 561.421 633.589 578.38 C 629.219 594.288 619.133 606.702 605.115 615.136 C 598.553 618.186 591.779 619.774 584.73 621.252 C 584.393 621.588 584.057 621.925 583.71 622.271 C 563.838 623.952 545.874 617.729 530.71 604.944 C 530.71 604.271 530.71 603.599 530.71 602.905 C 530.037 602.905 529.364 602.905 528.671 602.905 C 522.54 596.667 518.46 589.642 515.421 581.501 C 515.095 580.646 514.768 579.791 514.433 578.909 C 509.51 563.844 511.57 546.886 518.606 532.896 C 525.486 520.933 536.682 508.503 550.075 504.038 C 551.405 503.521 552.737 503.003 554.108 502.47 C 559.901 500.55 565.48 500.436 571.543 500.471 Z" fill="#3E5589" style=""/>
  <path d="M 220.365 450.047 C 221.815 450.025 385.349 437.562 386.969 437.563 C 405.079 437.708 405.079 437.708 413.321 441.83 C 420.352 447.374 422.064 456.981 422.214 463.536 C 422.261 465.337 429.316 639.129 429.329 640.193 C 429.335 644.81 428.999 645.247 426.898 649.449 C 425.604 650.89 424.279 654.934 417.264 656.422 C 413.537 657.213 233.017 664.274 228.566 663.969 C 225.28 663.522 220.532 662.857 216.448 658.209 C 209.018 650.982 210.849 637.924 210.16 625.596 C 209.719 617.703 202.118 476.223 202.36 469.676 C 202.575 463.845 203.604 458.48 207.432 454.06 C 211.868 450.922 214.857 449.973 220.365 450.047 Z M 393.113 447.425 C 388.601 447.375 232.245 458.945 226.809 459.556 C 220.809 460.231 211.048 461.292 211.598 477.493 C 211.851 484.915 219.911 627.441 220.264 635.164 C 220.48 639.891 220.596 645.439 223.878 649.316 C 227.295 653.351 233.236 654.13 237.808 654.086 C 238.922 654.08 396.529 647.659 397.593 647.565 C 408.163 646.962 410.906 647.681 415.776 642.932 C 419.961 638.852 418.332 632.507 418.658 628.834 C 418.761 627.671 412.182 468.013 411.929 465.664 C 411.025 456.478 409.632 456.714 407.266 453.076 C 402.764 448.588 397.801 447.477 393.113 447.425 Z" fill="#6978A1" style=""/>
  <path d="M 316.535 491.958 C 317.679 495.594 317.685 500.112 317.798 503.903 C 317.855 505.645 317.855 505.645 317.914 507.421 C 317.967 509.229 317.967 509.229 318.021 511.074 C 318.092 513.44 318.167 515.807 318.244 518.172 C 318.275 519.218 318.305 520.264 318.338 521.341 C 318.506 524.885 318.749 528.409 319.016 531.945 C 319.955 544.883 320.291 557.833 320.522 570.8 C 320.597 574.115 320.702 577.428 320.836 580.741 C 321.027 585.536 321.113 590.324 321.179 595.121 C 321.259 596.616 321.341 598.109 321.423 599.648 C 321.413 606.578 322.397 607.389 320.533 610.816 C 309.199 611.461 296.063 608.59 285.95 603.34 C 272.361 595.296 263.02 583.719 257.949 568.789 C 253.808 552.515 255.023 535.348 263.583 520.757 C 275.305 503.123 293.018 493.856 316.535 491.958 Z" fill="#E9EEFC" style=""/>
  <path d="M 578.127 500.655 C 587.192 501.067 596.111 504.183 604.321 508.288 C 605.1 508.712 606.14 509.22 607.772 510.308 C 612.937 513.539 622.118 521.382 626.519 527.927 C 635.371 542.976 636.973 561.421 633.59 578.38 C 629.22 594.288 619.134 606.702 605.115 615.136 C 601.451 616.84 597.785 618.11 593.903 619.213 C 592.431 619.634 590.96 620.054 589.444 620.487 C 587.888 620.74 586.333 620.992 584.73 621.252 C 582.99 621.56 582.99 621.56 581.214 621.873 C 577.522 622.272 575.01 622.397 571.479 621.252 C 570.857 618.651 570.857 618.651 571.045 615.157 C 571.1 613.857 571.155 612.559 571.212 611.221 C 571.3 609.822 571.389 608.424 571.479 606.982 C 571.54 605.595 571.6 604.208 571.661 602.779 C 571.861 598.295 572.11 593.817 572.371 589.337 C 572.463 587.72 572.555 586.102 572.65 584.437 C 573.236 574.39 573.936 564.36 574.789 554.332 C 575.656 544.028 576.276 533.71 576.885 523.387 C 577.038 520.816 577.199 518.247 577.37 515.677 C 577.513 513.453 577.635 511.228 577.726 509.002 C 577.89 506.192 577.803 505.011 578.127 500.655 Z" fill="#E8EDFC" style=""/>
  <path d="M 79.204 447.851 C 82.944 456.803 88.104 463.641 88.884 464.906 C 90.465 467.539 97.987 474.828 102.527 475.716 C 111.032 477.793 130.063 471.121 136.305 469.144 C 126.134 481.34 127.914 479.662 125.114 483.814 C 120.481 490.681 121.379 504.701 124.316 508.032 C 127.755 512.612 130.631 516.085 135.449 520.247 C 139.418 523.675 146.65 527.799 146.224 529.073 C 143.396 530.127 135.023 531.479 131.573 532.16 C 128.609 532.745 120.556 534.941 111.286 547.56 C 105.065 556.028 104.82 573.854 104.748 577.849 C 94.023 564.736 97.41 567.753 91.134 563.659 C 83.774 558.858 83.651 560.369 75.06 559.436 C 66.881 561.516 58.566 566.288 49.898 575.474 C 53.183 562.229 52.6 548.391 45.07 538.679 C 39.984 534.229 12.373 531.05 11.384 530.651 C 24.563 523.022 38.669 508.954 39.79 506.202 C 41.401 491.036 27.233 478.834 22.626 470.722 C 29.904 471.969 37.018 473.347 44.163 475.249 C 50.962 476.982 56.677 477.797 63.59 476.108 C 76.125 467.567 77.955 449.1 79.204 447.851 Z" fill="#92E4FE" style=""/>
  <path d="M 316.358 491.873 C 336.824 492.073 346.128 494.345 361.339 509.099 C 367.436 515.52 371.483 522.229 374.589 530.503 C 374.915 531.311 375.24 532.12 375.577 532.951 C 379.757 545.203 379.625 562.376 374.589 574.331 C 373.862 576.071 373.862 576.071 373.12 577.846 C 369.382 586.008 365.187 592.045 358.281 597.774 C 357.53 598.422 356.778 599.069 356.004 599.737 C 346.035 607.548 327.096 611.017 320.546 610.818 C 320.339 610.812 320.482 600.148 320.258 595.121 C 320.226 593.595 320.192 592.068 320.158 590.494 C 320.04 585.571 319.859 580.653 319.677 575.732 C 319.591 572.465 319.508 569.198 319.431 565.93 C 319.106 553.439 318.672 540.985 317.729 528.525 C 317.458 524.654 317.35 520.794 317.296 516.915 C 317.268 515.494 317.238 514.073 317.209 512.608 C 317.155 509.665 317.11 506.721 317.073 503.777 C 317.041 502.374 316.964 500.968 316.877 499.523 C 316.706 496.657 316.642 495.799 316.358 491.873 Z" fill="#3E558A" style=""/>
  <path d="M 117.711 54.491 C 121.851 55.063 121.851 55.063 124.145 56.974 C 127.15 62.342 129.193 68.026 131.216 73.817 C 131.636 74.986 132.057 76.155 132.49 77.359 C 133.055 78.995 133.055 78.995 133.633 80.664 C 137.578 88.555 146.712 90.442 154.451 93.343 C 159.86 95.452 164.075 97.196 167.717 101.949 C 167.845 104.561 167.845 104.561 166.698 107.045 C 162.438 111.137 157.392 113.067 151.983 115.199 C 141.885 118.735 141.885 118.735 134.588 125.997 C 134.054 127.464 134.054 127.464 133.509 128.959 C 132.894 130.567 132.894 130.567 132.267 132.208 C 131.857 133.322 131.446 134.436 131.024 135.584 C 130.168 137.798 129.298 140.007 128.413 142.209 C 128.033 143.187 127.653 144.164 127.262 145.171 C 125.779 148.11 124.466 149.888 121.851 151.892 C 120.169 151.892 118.488 151.892 116.755 151.892 C 111.615 146.14 109.584 137.968 107.014 130.816 C 104.174 123.001 104.174 123.001 98.408 117.238 C 94.598 115.603 90.706 114.335 86.751 113.097 C 70.882 108.054 70.882 108.054 66.812 101.949 C 67.831 97.872 67.831 97.872 70.184 95.798 C 76.288 92.548 82.891 91.145 89.563 89.446 C 97.705 87.346 97.705 87.346 103.505 81.564 C 105.004 77.875 106.121 74.119 107.199 70.289 C 107.778 68.279 108.366 66.27 108.96 64.265 C 109.209 63.379 109.46 62.494 109.718 61.581 C 111.486 56.898 112.725 55.202 117.711 54.491 Z" fill="#B4C6FA" style=""/>
  <path d="M 574.056 563.094 C 574.778 562.887 574.222 563.06 574.83 562.901 C 576.175 562.565 577.507 562.298 578.893 561.951 C 585.548 561.605 589.679 562.205 595.446 565.894 C 600.433 570.085 602.572 575.352 603.08 581.826 C 603.618 588.243 600.372 592.493 595.648 597.052 C 590.243 601.081 585.467 601.163 578.893 600.682 C 577.097 600.052 577.097 600.052 575.263 599.408 C 574.442 599.157 573.623 598.904 572.778 598.644 C 572.138 598.453 572.282 598.454 571.887 598.368 C 572.56 584.577 573.363 577.302 574.056 563.094 Z" fill="#B4C7FA" style=""/>
  <path d="M 337.76 556.604 C 343.22 560.052 345.985 562.741 348.096 568.937 C 349.459 573.107 349.776 579.251 347.136 584.678 C 343.698 588.931 342.235 591.54 333.82 593.168 C 328.141 593.494 325.392 593.494 320.476 591.035 C 320.135 587.767 319.632 560.961 319.332 558.015 C 325.748 555.876 331 553.752 337.76 556.604 Z" fill="#314786" style=""/>
  <path d="M 65.13 311.287 C 67.074 317.451 68.83 321.002 72.481 325.899 C 76.6 331.427 86.363 334.521 92.588 335.36 C 84.963 336.401 78.349 338.832 74.861 342.766 C 72.001 345.975 68.269 353.887 66.804 359.984 C 65.182 353.896 62.642 348.514 57.462 343.781 C 53.015 340.685 49.223 338.359 41.686 337.209 C 50.042 333.815 53.444 330.507 56.983 326.093 C 59.606 322.822 62.98 317.579 65.13 311.287 Z" fill="#CCE0FE" style=""/>
  <ellipse style="fill: rgb(181, 200, 251);" cx="607.602" cy="546.58" rx="11.645" ry="11.645"/>
  <path d="M 639.019 321.869 C 640.972 328.063 642.738 331.633 646.407 336.555 C 650.548 342.111 660.361 345.222 666.617 346.065 C 658.953 347.112 652.305 349.555 648.8 353.509 C 645.925 356.734 642.174 364.687 640.701 370.815 C 639.071 364.696 636.518 359.287 631.312 354.53 C 626.842 351.417 623.03 349.08 615.459 347.923 C 623.854 344.512 627.274 341.187 630.83 336.75 C 633.466 333.462 636.858 328.192 639.019 321.869 Z" fill="#CCE0FE" style=""/>
  <path d="M 450.678 245.503 C 452.654 239.992 460.546 239.992 462.523 245.503 L 467.929 260.571 C 468.562 262.335 469.966 263.723 471.752 264.348 L 487.01 269.688 C 492.589 271.639 492.589 279.433 487.01 281.386 L 471.752 286.725 C 469.966 287.35 468.562 288.737 467.929 290.502 L 462.523 305.571 C 460.546 311.081 452.654 311.081 450.678 305.571 L 445.272 290.502 C 444.639 288.737 443.235 287.35 441.449 286.725 L 426.191 281.386 C 420.612 279.433 420.612 271.639 426.191 269.688 L 441.449 264.348 C 443.235 263.723 444.639 262.335 445.272 260.571 L 450.678 245.503 Z" style="fill: rgb(85, 90, 150);"/>
  <path d="M 414.212 5.23 C 415.916 0.48 422.717 0.48 424.42 5.23 L 429.08 18.217 C 429.626 19.737 430.836 20.932 432.376 21.471 L 445.525 26.074 C 450.336 27.758 450.336 34.473 445.525 36.155 L 432.376 40.757 C 430.836 41.297 429.626 42.492 429.08 44.015 L 424.42 57 C 422.717 61.75 415.916 61.75 414.212 57 L 409.552 44.015 C 409.006 42.492 407.795 41.297 406.256 40.757 L 393.108 36.155 C 388.297 34.473 388.297 27.758 393.108 26.074 L 406.256 21.471 C 407.795 20.932 409.006 19.737 409.552 18.217 L 414.212 5.23 Z" style="fill: rgb(204, 224, 254);"/>
  <path d="M 521.203 98.933 C 524.456 89.867 537.439 89.867 540.692 98.933 L 551.842 130.01 C 552.881 132.913 555.196 135.196 558.133 136.224 L 589.598 147.236 C 598.779 150.449 598.779 163.271 589.598 166.484 L 558.133 177.496 C 555.196 178.523 552.881 180.807 551.842 183.71 L 540.692 214.787 C 537.439 223.853 524.456 223.853 521.203 214.787 L 510.053 183.71 C 509.014 180.807 506.699 178.523 503.762 177.496 L 472.297 166.484 C 463.116 163.271 463.116 150.449 472.297 147.236 L 503.762 136.224 C 506.699 135.196 509.014 132.913 510.053 130.01 L 521.203 98.933 Z" style="fill: rgb(100, 238, 255);"/>
  <ellipse style="fill: rgb(181, 200, 251);" cx="295.922" cy="578.59" rx="9.798" ry="9.798"/>
  <ellipse style="fill: rgb(181, 200, 251);" cx="294.098" cy="521.374" rx="9.798" ry="9.798"/>
  <ellipse style="fill: rgb(181, 200, 251);" cx="279.516" cy="540.005" rx="8.285" ry="8.285"/>
  <path d="M 473.402 453.886 C 474.886 453.74 643.315 443.543 644.979 443.544 C 663.587 443.693 663.587 443.693 672.056 447.928 C 679.281 453.625 680.538 463.245 680.692 469.981 C 680.741 471.832 680.842 475.695 680.893 477.709 C 681.157 486.834 687.814 637.131 687.839 638.566 C 687.896 642.265 687.989 651.783 688.003 652.876 C 688.009 657.62 686.371 659.925 684.279 663.538 C 681.911 666.456 678.83 667.708 675.503 668.21 C 671.27 668.847 486.786 676.597 482.213 676.283 C 478.837 675.825 473.962 675.036 469.766 670.259 C 462.131 662.834 464.013 649.417 463.305 636.75 C 462.851 628.639 454.106 483.89 454.218 477.16 C 454.334 470.169 454.582 464.794 458.799 459.916 C 462.959 455.104 467.934 454.422 473.402 453.886 Z M 651.292 453.677 C 646.656 453.626 485.517 464.554 479.932 465.181 C 473.766 465.876 463.737 466.965 464.302 483.612 C 464.562 491.239 473.324 638.645 473.687 646.58 C 473.908 651.438 474.028 657.139 477.4 661.122 C 480.91 665.268 487.016 666.068 491.714 666.023 C 492.859 666.017 654.801 659.42 655.895 659.323 C 666.757 658.704 669.575 659.442 674.579 654.563 C 678.879 650.371 677.205 643.852 677.54 640.077 C 677.646 638.882 670.886 474.832 670.626 472.417 C 669.697 462.979 668.265 463.221 665.834 459.483 C 661.209 454.872 656.109 453.73 651.292 453.677 Z" fill="#6978A1" style="transform-box: fill-box; transform-origin: 50% 50%;" transform="matrix(0.994522, 0.104529, -0.104529, 0.994522, 0, 0.000005)"/>
</svg>