<?xml version="1.0" encoding="utf-8"?>
<svg version="1.1" xmlns="http://www.w3.org/2000/svg" width="950px" height="950px">
  <ellipse style="fill: rgb(255, 255, 255);" cx="475" cy="475" rx="475" ry="475"/>
  <path d="M 277.72 461.47 C 277.72 579.54 376.222 675.254 497.729 675.254 C 591.272 675.254 671.176 618.531 703.005 538.549 C 677.795 550.053 649.649 556.484 619.958 556.484 C 511.948 556.484 424.393 471.404 424.393 366.453 C 424.393 322.559 439.707 282.142 465.428 249.97 C 359.232 265.152 277.72 354.06 277.72 461.47 Z" stroke-linecap="round" stroke-linejoin="round" style="fill: rgb(102, 141, 255); stroke: rgb(102, 141, 255); stroke-width: 30px;"/>
  <path d="M 604.563 608.47 C 637.824 609.413 802.866 615.191 802.825 623.634 C 802.631 664.396 803.689 730.127 800.867 770.791 C 799.632 788.592 799.183 805.661 796.926 823.338 C 796.421 827.286 794.362 832.628 790.299 834.033 C 781.524 837.07 750.221 833.448 740.446 833.024 C 707.447 831.591 674.962 829.286 642.007 826.959 C 633.043 826.326 624.092 826.022 615.132 825.338 C 609.765 824.928 604.875 824.9 599.54 824.192 C 595.972 823.718 586.983 821.777 586.449 818.218 C 577.571 759.061 586.924 693.6 590.91 634.076 C 592.299 613.347 595.155 608.203 604.563 608.47 Z" fill="#26355E" style=""/>
  <path d="M 329.162 617.207 C 333.598 614.068 524.699 602.964 532.941 607.086 C 532.941 607.758 545.2 804.697 543.099 808.9 C 540.44 809.93 341.699 822.943 339.039 820.984 C 331.82 811.359 325.334 621.626 329.162 617.207 Z" fill="#26355E" style=""/>
  <path d="M 691.163 660.803 C 692.279 660.805 693.396 660.807 694.546 660.809 C 705.564 661.022 714.044 664.728 723.938 669.676 C 723.938 670.348 724.735 669.793 724.735 670.486 C 725.451 670.594 722.685 670.667 723.424 670.778 C 731.374 672.663 741.737 681.714 746.139 688.259 C 754.991 703.308 756.593 721.753 753.209 738.712 C 748.839 754.62 738.753 767.034 724.735 775.468 C 718.173 778.518 711.399 780.106 704.35 781.584 C 704.013 781.92 703.677 782.257 703.33 782.603 C 683.458 784.284 665.494 778.061 650.33 765.276 C 650.33 764.603 650.33 763.931 650.33 763.237 C 649.657 763.237 648.984 763.237 648.291 763.237 C 642.16 756.999 638.08 749.974 635.041 741.833 C 634.715 740.978 634.388 740.123 634.053 739.241 C 629.13 724.176 631.19 707.218 638.226 693.228 C 645.106 681.265 656.302 668.835 669.695 664.37 C 671.025 663.853 672.357 663.335 673.728 662.802 C 679.521 660.882 685.1 660.768 691.163 660.803 Z" fill="#3E5589" style=""/>
  <path d="M 339.985 610.379 C 341.435 610.357 504.969 597.894 506.589 597.895 C 524.699 598.04 524.699 598.04 532.941 602.162 C 539.972 607.706 541.684 617.313 541.834 623.868 C 541.881 625.669 548.936 799.461 548.949 800.525 C 548.955 805.142 548.619 805.579 546.518 809.781 C 545.224 811.222 543.899 815.266 536.884 816.754 C 533.157 817.545 352.637 824.606 348.186 824.301 C 344.9 823.854 340.152 823.189 336.068 818.541 C 328.638 811.314 330.469 798.256 329.78 785.928 C 329.339 778.035 321.738 636.555 321.98 630.008 C 322.195 624.177 323.224 618.812 327.052 614.392 C 331.488 611.254 334.477 610.305 339.985 610.379 Z M 512.733 607.757 C 508.221 607.707 351.865 619.277 346.429 619.888 C 340.429 620.563 330.668 621.624 331.218 637.825 C 331.471 645.247 339.531 787.773 339.884 795.496 C 340.1 800.223 340.216 805.771 343.498 809.648 C 346.915 813.683 352.856 814.462 357.428 814.418 C 358.542 814.412 516.149 807.991 517.213 807.897 C 527.783 807.294 530.526 808.013 535.396 803.264 C 539.581 799.184 537.952 792.839 538.278 789.166 C 538.381 788.003 531.802 628.345 531.549 625.996 C 530.645 616.81 529.252 617.046 526.886 613.408 C 522.384 608.92 517.421 607.809 512.733 607.757 Z" fill="#6978A1" style=""/>
  <path d="M 436.155 652.29 C 437.299 655.926 437.305 660.444 437.418 664.235 C 437.475 665.977 437.475 665.977 437.534 667.753 C 437.587 669.561 437.587 669.561 437.641 671.406 C 437.712 673.772 437.787 676.139 437.864 678.504 C 437.895 679.55 437.925 680.596 437.958 681.673 C 438.126 685.217 438.369 688.741 438.636 692.277 C 439.575 705.215 439.911 718.165 440.142 731.132 C 440.217 734.447 440.322 737.76 440.456 741.073 C 440.647 745.868 440.733 750.656 440.799 755.453 C 440.879 756.948 440.961 758.441 441.043 759.98 C 441.033 766.91 442.017 767.721 440.153 771.148 C 428.819 771.793 415.683 768.922 405.57 763.672 C 391.981 755.628 382.64 744.051 377.569 729.121 C 373.428 712.847 374.643 695.68 383.203 681.089 C 394.925 663.455 412.638 654.188 436.155 652.29 Z" fill="#E9EEFC" style=""/>
  <path d="M 697.747 660.987 C 706.812 661.399 715.731 664.515 723.941 668.62 C 724.72 669.044 725.76 669.552 727.392 670.64 C 732.557 673.871 741.738 681.714 746.139 688.259 C 754.991 703.308 756.593 721.753 753.21 738.712 C 748.84 754.62 738.754 767.034 724.735 775.468 C 721.071 777.172 717.405 778.442 713.523 779.545 C 712.051 779.966 710.58 780.386 709.064 780.819 C 707.508 781.072 705.953 781.324 704.35 781.584 C 702.61 781.892 702.61 781.892 700.834 782.205 C 697.142 782.604 694.63 782.729 691.099 781.584 C 690.477 778.983 690.477 778.983 690.665 775.489 C 690.72 774.189 690.775 772.891 690.832 771.553 C 690.92 770.154 691.009 768.756 691.099 767.314 C 691.16 765.927 691.22 764.54 691.281 763.111 C 691.481 758.627 691.73 754.149 691.991 749.669 C 692.083 748.052 692.175 746.434 692.27 744.769 C 692.856 734.722 693.556 724.692 694.409 714.664 C 695.276 704.36 695.896 694.042 696.505 683.719 C 696.658 681.148 696.819 678.579 696.99 676.009 C 697.133 673.785 697.255 671.56 697.346 669.334 C 697.51 666.524 697.423 665.343 697.747 660.987 Z" fill="#E8EDFC" style=""/>
  <path d="M 198.82 608.183 C 202.56 617.135 207.72 623.973 208.5 625.238 C 210.08 627.871 217.61 635.16 222.15 636.048 C 230.652 638.125 249.683 631.453 255.925 629.476 C 245.754 641.672 247.534 639.994 244.734 644.146 C 240.101 651.013 240.999 665.033 243.936 668.364 C 247.375 672.944 250.251 676.417 255.069 680.579 C 259.038 684.007 266.27 688.131 265.844 689.405 C 263.016 690.459 254.643 691.811 251.193 692.492 C 248.229 693.077 240.176 695.273 230.906 707.892 C 224.68 716.36 224.44 734.186 224.37 738.181 C 213.64 725.068 217.03 728.085 210.75 723.991 C 203.39 719.19 203.27 720.701 194.68 719.768 C 186.5 721.848 178.19 726.62 169.52 735.806 C 172.8 722.561 172.22 708.723 164.69 699.011 C 159.6 694.561 131.99 691.382 131 690.983 C 144.18 683.354 158.29 669.286 159.41 666.534 C 161.02 651.368 146.85 639.166 142.25 631.054 C 149.52 632.301 156.64 633.679 163.78 635.581 C 170.58 637.314 176.3 638.129 183.21 636.44 C 195.74 627.899 197.57 609.432 198.82 608.183 Z" fill="#92E4FE" style=""/>
  <path d="M 435.978 652.205 C 456.444 652.405 465.748 654.677 480.959 669.431 C 487.056 675.852 491.103 682.561 494.209 690.835 C 494.535 691.643 494.86 692.452 495.197 693.283 C 499.377 705.535 499.245 722.708 494.209 734.663 C 493.482 736.403 493.482 736.403 492.74 738.178 C 489.002 746.34 484.807 752.377 477.901 758.106 C 477.15 758.754 476.398 759.401 475.624 760.069 C 465.655 767.88 446.716 771.349 440.166 771.15 C 439.959 771.144 440.102 760.48 439.878 755.453 C 439.846 753.927 439.812 752.4 439.778 750.826 C 439.66 745.903 439.479 740.985 439.297 736.064 C 439.211 732.797 439.128 729.53 439.051 726.262 C 438.726 713.771 438.292 701.317 437.349 688.857 C 437.078 684.986 436.97 681.126 436.916 677.247 C 436.888 675.826 436.858 674.405 436.829 672.94 C 436.775 669.997 436.73 667.053 436.693 664.109 C 436.661 662.706 436.584 661.3 436.497 659.855 C 436.326 656.989 436.262 656.131 435.978 652.205 Z" fill="#3E558A" style=""/>
  <path d="M 237.331 214.823 C 241.471 215.395 241.471 215.395 243.765 217.306 C 246.77 222.674 248.813 228.358 250.836 234.149 C 251.256 235.318 251.677 236.487 252.11 237.691 C 252.675 239.327 252.675 239.327 253.253 240.996 C 257.198 248.887 266.332 250.774 274.071 253.675 C 279.48 255.784 283.695 257.528 287.337 262.281 C 287.465 264.893 287.465 264.893 286.318 267.377 C 282.058 271.469 277.012 273.399 271.603 275.531 C 261.505 279.067 261.505 279.067 254.208 286.329 C 253.674 287.796 253.674 287.796 253.129 289.291 C 252.514 290.899 252.514 290.899 251.887 292.54 C 251.477 293.654 251.066 294.768 250.644 295.916 C 249.788 298.13 248.918 300.339 248.033 302.541 C 247.653 303.519 247.273 304.496 246.882 305.503 C 245.399 308.442 244.086 310.22 241.471 312.224 C 239.789 312.224 238.108 312.224 236.375 312.224 C 231.235 306.472 229.204 298.3 226.634 291.148 C 223.79 283.333 223.79 283.333 218.03 277.57 C 214.22 275.935 210.33 274.667 206.37 273.429 C 190.5 268.386 190.5 268.386 186.43 262.281 C 187.45 258.204 187.45 258.204 189.8 256.13 C 195.91 252.88 202.51 251.477 209.18 249.778 C 217.32 247.678 217.32 247.678 223.13 241.896 C 224.62 238.207 225.74 234.451 226.819 230.621 C 227.398 228.611 227.986 226.602 228.58 224.597 C 228.829 223.711 229.08 222.826 229.338 221.913 C 231.106 217.23 232.345 215.534 237.331 214.823 Z" fill="#B4C6FA" style=""/>
  <path d="M 693.676 723.426 C 694.398 723.219 693.842 723.392 694.45 723.233 C 695.795 722.897 697.127 722.63 698.513 722.283 C 705.168 721.937 709.299 722.537 715.066 726.226 C 720.053 730.417 722.192 735.684 722.7 742.158 C 723.238 748.575 719.992 752.825 715.268 757.384 C 709.863 761.413 705.087 761.495 698.513 761.014 C 696.717 760.384 696.717 760.384 694.883 759.74 C 694.062 759.489 693.243 759.236 692.398 758.976 C 691.758 758.785 691.902 758.786 691.507 758.7 C 692.18 744.909 692.983 737.634 693.676 723.426 Z" fill="#B4C7FA" style=""/>
  <path d="M 457.38 716.936 C 462.84 720.384 465.605 723.073 467.716 729.269 C 469.079 733.439 469.396 739.583 466.756 745.01 C 463.318 749.263 461.855 751.872 453.44 753.5 C 447.761 753.826 445.012 753.826 440.096 751.367 C 439.755 748.099 439.252 721.293 438.952 718.347 C 445.368 716.208 450.62 714.084 457.38 716.936 Z" fill="#314786" style=""/>
  <path d="M 184.75 471.619 C 186.69 477.783 188.45 481.334 192.1 486.231 C 196.22 491.759 205.98 494.853 212.21 495.692 C 204.58 496.733 197.97 499.164 194.48 503.098 C 191.62 506.307 187.89 514.219 186.42 520.316 C 184.8 514.228 182.26 508.846 177.08 504.113 C 172.64 501.017 168.84 498.691 161.31 497.541 C 169.66 494.147 173.06 490.839 176.6 486.425 C 179.23 483.154 182.6 477.911 184.75 471.619 Z" fill="#CCE0FE" style=""/>
  <ellipse style="fill: rgb(181, 200, 251);" cx="727.222" cy="706.911" rx="11.645" ry="11.645"/>
  <path d="M 758.639 482.201 C 760.592 488.395 762.358 491.965 766.027 496.887 C 770.168 502.443 779.981 505.554 786.237 506.397 C 778.573 507.444 771.925 509.887 768.42 513.841 C 765.545 517.066 761.794 525.019 760.321 531.147 C 758.691 525.028 756.138 519.619 750.932 514.862 C 746.462 511.749 742.65 509.412 735.079 508.255 C 743.474 504.844 746.894 501.519 750.45 497.082 C 753.086 493.794 756.478 488.524 758.639 482.201 Z" fill="#CCE0FE" style=""/>
  <path d="M 570.298 405.835 C 572.274 400.324 580.166 400.324 582.143 405.835 L 587.549 420.903 C 588.182 422.667 589.586 424.055 591.372 424.68 L 606.63 430.02 C 612.209 431.971 612.209 439.765 606.63 441.718 L 591.372 447.057 C 589.586 447.682 588.182 449.069 587.549 450.834 L 582.143 465.903 C 580.166 471.413 572.274 471.413 570.298 465.903 L 564.892 450.834 C 564.259 449.069 562.855 447.682 561.069 447.057 L 545.811 441.718 C 540.232 439.765 540.232 431.971 545.811 430.02 L 561.069 424.68 C 562.855 424.055 564.259 422.667 564.892 420.903 L 570.298 405.835 Z" style="fill: rgb(85, 90, 150);"/>
  <path d="M 533.832 165.562 C 535.536 160.812 542.337 160.812 544.04 165.562 L 548.7 178.549 C 549.246 180.069 550.456 181.264 551.996 181.803 L 565.145 186.406 C 569.956 188.09 569.956 194.805 565.145 196.487 L 551.996 201.089 C 550.456 201.629 549.246 202.824 548.7 204.347 L 544.04 217.332 C 542.337 222.082 535.536 222.082 533.832 217.332 L 529.172 204.347 C 528.626 202.824 527.415 201.629 525.876 201.089 L 512.728 196.487 C 507.917 194.805 507.917 188.09 512.728 186.406 L 525.876 181.803 C 527.415 181.264 528.626 180.069 529.172 178.549 L 533.832 165.562 Z" style="fill: rgb(204, 224, 254);"/>
  <path d="M 640.823 259.265 C 644.076 250.199 657.059 250.199 660.312 259.265 L 671.462 290.342 C 672.501 293.245 674.816 295.528 677.753 296.556 L 709.218 307.568 C 718.399 310.781 718.399 323.603 709.218 326.816 L 677.753 337.828 C 674.816 338.855 672.501 341.139 671.462 344.042 L 660.312 375.119 C 657.059 384.185 644.076 384.185 640.823 375.119 L 629.673 344.042 C 628.634 341.139 626.319 338.855 623.382 337.828 L 591.917 326.816 C 582.736 323.603 582.736 310.781 591.917 307.568 L 623.382 296.556 C 626.319 295.528 628.634 293.245 629.673 290.342 L 640.823 259.265 Z" style="fill: rgb(100, 238, 255);"/>
  <ellipse style="fill: rgb(181, 200, 251);" cx="415.542" cy="738.922" rx="9.798" ry="9.798"/>
  <ellipse style="fill: rgb(181, 200, 251);" cx="413.718" cy="681.705" rx="9.798" ry="9.798"/>
  <ellipse style="fill: rgb(181, 200, 251);" cx="399.136" cy="700.336" rx="8.285" ry="8.285"/>
  <path d="M 593.022 614.217 C 594.506 614.071 762.935 603.874 764.599 603.875 C 783.207 604.024 783.207 604.024 791.676 608.259 C 798.901 613.956 800.158 623.576 800.312 630.312 C 800.361 632.163 800.462 636.026 800.513 638.04 C 800.777 647.165 807.434 797.465 807.459 798.9 C 807.516 802.599 807.609 812.117 807.623 813.21 C 807.629 817.954 805.991 820.259 803.899 823.872 C 801.531 826.79 798.45 828.042 795.123 828.544 C 790.89 829.181 606.406 836.931 601.833 836.617 C 598.457 836.159 593.582 835.37 589.386 830.593 C 581.751 823.168 583.633 809.751 582.925 797.084 C 582.471 788.973 573.726 644.221 573.838 637.491 C 573.954 630.5 574.202 625.125 578.419 620.247 C 582.579 615.435 587.554 614.753 593.022 614.217 Z M 770.912 614.008 C 766.276 613.957 605.137 624.885 599.552 625.512 C 593.386 626.207 583.357 627.296 583.922 643.943 C 584.182 651.57 592.944 798.979 593.307 806.914 C 593.528 811.772 593.648 817.473 597.02 821.456 C 600.53 825.602 606.636 826.402 611.334 826.357 C 612.479 826.351 774.421 819.754 775.515 819.657 C 786.377 819.038 789.195 819.776 794.199 814.897 C 798.499 810.705 796.825 804.186 797.16 800.411 C 797.266 799.216 790.506 635.163 790.246 632.748 C 789.317 623.31 787.885 623.552 785.454 619.814 C 780.829 615.203 775.729 614.061 770.912 614.008 Z" fill="#6978A1" style="transform-box: fill-box; transform-origin: 50% 50%;" transform="matrix(0.994522, 0.104529, -0.104529, 0.994522, 0, 0.000004)"/>
</svg>